<?xml version="1.0" encoding="UTF-8"?>
<svg id="a" xmlns="http://www.w3.org/2000/svg" viewBox="0 0 600 110"><path d="m32.16706,17.47338c0,7.49599-6.07812,13.5795-13.58555,13.5795s-13.58151-6.08351-13.58151-13.5795c0-7.51239,6.07443-13.58353,13.58151-13.58353s13.58555,6.07115,13.58555,13.58353Zm-13.58555,22.83855c-7.50709,0-13.58151,6.06543-13.58151,13.57866,0,7.49919,6.07443,13.57697,13.58151,13.57697s13.58555-6.07779,13.58555-13.57697c0-7.51323-6.07812-13.57866-13.58555-13.57866Zm0,37.1858c-7.50709,0-13.58151,6.07367-13.58151,13.5795,0,7.50003,6.07443,13.59093,13.58151,13.59093s13.58555-6.09091,13.58555-13.59093c0-7.50583-6.07812-13.5795-13.58555-13.5795Zm37.06588,26.9306h31.69354c11.98302-.08872,19.53981-.31206,22.67347-.67012,4.99621-.58141,9.19918-2.13348,12.60883-4.6595,3.40797-2.52602,6.09663-5.9012,8.06588-10.12544,1.96757-4.22425,2.95304-8.57177,2.95304-13.0424,0-5.67617-1.51928-10.61654-4.55439-14.81942-3.03519-4.20129-7.37776-7.17409-13.02601-8.91831,3.9829-1.9167,7.13793-4.79254,9.46524-8.62593,2.32563-3.83339,3.49013-8.0478,3.49013-12.63994,0-4.23417-.95259-8.05772-2.85616-11.46737-1.90517-3.40965-4.28504-6.14094-7.14121-8.19235-2.85616-2.04973-6.09335-3.39813-9.70995-4.04522-3.6182-.64708-9.10878-.97067-16.47005-.97067h-37.19236v98.17669Zm29.59293-81.88398c8.83287,0,14.18058.11167,16.03976.33502,3.12719.40246,5.48402,1.55207,7.06897,3.44909,1.58487,1.89862,2.37819,4.36552,2.37819,7.40071,0,3.16982-.91979,5.72704-2.75761,7.66838-1.8395,1.94301-4.36392,3.11567-7.57647,3.51645-1.77542.22335-6.31837.33502-13.63037.33502h-12.29996v-22.70467h10.77749Zm4.43288,38.99738c8.57009,0,14.13786.46973,16.70492,1.40752,2.56546.93947,4.52815,2.43571,5.8864,4.49199,1.35665,2.05629,2.03661,4.55775,2.03661,7.50751,0,3.48676-.88035,6.26901-2.64097,8.34666-1.76071,2.07933-4.04202,3.38669-6.84067,3.92211-1.82638.40238-6.13278.60277-12.91921.60277h-17.43744v-26.27856h15.21036Zm78.79909,42.8866v-40.99455h3.81043c4.31952,0,7.47295.36958,9.46356,1.10537,1.99062.7374,3.87443,2.1006,5.65313,4.08794,1.7771,1.98733,5.07996,6.79954,9.90866,14.43681l13.5351,21.36442h22.48461l-11.3589-19.15703c-4.48047-7.63398-8.04124-12.94713-10.68221-15.93961-2.64097-2.99248-5.99151-5.73857-10.04825-8.24003,8.15291-1.24986,14.27746-4.27352,18.37523-9.07262,4.09617-4.7991,6.1459-10.881,6.1459-18.24716,0-5.80264-1.35496-10.9582-4.0633-15.46659-2.70833-4.50839-6.31509-7.64382-10.82189-9.40773-4.50671-1.76398-11.73167-2.64593-21.67481-2.64593h-39.54271v98.17669h18.81545Zm0-81.56864h14.65856c7.61414,0,12.18173.11167,13.70589.33502,3.04503.53549,5.40354,1.81981,7.07545,3.85146,1.67039,2.03165,2.50634,4.69895,2.50634,8.00181,0,2.94656-.63556,5.40195-1.90358,7.36624-1.26953,1.96429-3.02527,3.34886-5.26715,4.15201-2.24188.80475-7.86885,1.20553-16.87907,1.20553h-13.89644v-24.91207Zm145.93589,81.56864v-16.60805h-51.92643v-26.5939h46.67072v-16.60805h-46.67072v-21.75864h50.13949V6.25164h-68.95493v98.17669h70.74187Zm15.87477-45.80348c0,10.98444.6126,19.29006,1.84109,24.91535.84588,3.79555,2.60162,7.42367,5.26891,10.88419,2.66562,3.46062,6.29533,6.27406,10.88748,8.43874,4.59223,2.163,11.33098,3.24702,20.21809,3.24702,7.36455,0,13.33143-.99362,17.9023-2.97936,4.57079-1.98725,8.22187-4.65454,10.95156-8.0034,2.72969-3.34893,4.60198-7.45655,5.61705-12.32468,1.01498-4.86645,1.52417-13.19343,1.52417-24.98103V6.25164h-18.81545v54.32925c0,7.77189-.27591,13.33311-.82453,16.68196-.55021,3.35054-2.1778,6.1755-4.88125,8.47481-2.70504,2.29939-6.72075,3.44909-12.04542,3.44909-5.24091,0-9.37156-1.21705-12.39364-3.65108-3.02199-2.43402-4.93541-5.65977-5.73688-9.68035-.46645-2.49978-.69803-7.9706-.69803-16.41261V6.25164h-18.81545v52.3732Zm164.96112,45.80348v-16.60805h-51.92643v-26.5939h46.67072v-16.60805h-46.67072v-21.75864h50.13948V6.25164h-68.95493v98.17669h70.74187Zm34.90045,0v-40.99455h3.81035c4.31952,0,7.47295.36958,9.46357,1.10537,1.9906.7374,3.87441,2.1006,5.6532,4.08794,1.77702,1.98733,5.07996,6.79954,9.90866,14.43681l13.5351,21.36442h22.48461l-11.35896-19.15703c-4.48049-7.63398-8.04125-12.94713-10.68223-15.93961-2.64097-2.99248-5.99151-5.73857-10.04825-8.24003,8.15293-1.24986,14.27745-4.27352,18.37531-9.07262,4.09618-4.7991,6.1459-10.881,6.1459-18.24716,0-5.80264-1.35505-10.9582-4.06338-15.46659-2.70833-4.50839-6.31501-7.64382-10.8218-9.40773-4.50679-1.76398-11.73176-2.64593-21.67489-2.64593h-39.54263v98.17669h18.81545Zm0-81.56864h14.65847c7.61422,0,12.18173.11167,13.70589.33502,3.04503.53549,5.40354,1.81981,7.07553,3.85146,1.67031,2.03165,2.50634,4.69895,2.50634,8.00181,0,2.94656-.63563,5.40195-1.90358,7.36624-1.26961,1.96429-3.02536,3.34886-5.26723,4.15201-2.24188.80475-7.86877,1.20553-16.87907,1.20553h-13.89635v-24.91207Z" style="fill:#1e2329;"/></svg>